# xmcd CD database file
#
# Track frame offsets:
#	150
#	13800
#	29438
#	44400
#	55088
#	71438
#	82463
#	96225
#	110575
#	123600
#
# Disc length: 1927 seconds
#
# Revision: 0
# Processed by: cddbd v1.5.1PL2 Copyright (c) Steve Scherf et al.
# Submitted via: CDex 1.51
#
DISCID=8f07850a
DTITLE=Shucks - I Love To Dance
DYEAR=1990
DGENRE=Country
TTITLE0=I Love To Dance
TTITLE1=Mile Marker Ten
TTITLE2=Careless Moon
TTITLE3=Gotta Get Up Every Morning (Just To Say Good Night To You)
TTITLE4=I Can't Turn An Old Lover Down
TTITLE5=Signs Of Love
TTITLE6=For Cryin' Out Loud
TTITLE7=I Sure Do Feel The Rain
TTITLE8=If We Play Our Hearts Right
TTITLE9=I'm So Lonesome I Could Cry
EXTD=YEAR: 1990
EXTT0=
EXTT1=
EXTT2=
EXTT3=
EXTT4=
EXTT5=
EXTT6=
EXTT7=
EXTT8=
EXTT9=
PLAYORDER=
